<svg xmlns="http://www.w3.org/2000/svg" viewBox="0 0 400 320" fill="none">
  <!-- shadow -->
  <ellipse cx="200" cy="305" rx="120" ry="10" fill="black" opacity="0.35"/>

  <!-- Antennas -->
  <rect x="78" y="30" width="8" height="90" rx="4" fill="#CCCCCC"/>
  <rect x="314" y="30" width="8" height="90" rx="4" fill="#CCCCCC"/>
  <rect x="143" y="20" width="8" height="80" rx="4" fill="#DDDDDD"/>
  <rect x="249" y="20" width="8" height="80" rx="4" fill="#DDDDDD"/>
  <!-- Antenna caps -->
  <circle cx="82" cy="30" r="6" fill="#BBBBBB"/>
  <circle cx="318" cy="30" r="6" fill="#BBBBBB"/>
  <circle cx="147" cy="20" r="5" fill="#CCCCCC"/>
  <circle cx="253" cy="20" r="5" fill="#CCCCCC"/>

  <!-- Main body -->
  <rect x="40" y="110" width="320" height="150" rx="16" fill="#F0F0F0"/>
  <!-- Top edge highlight -->
  <rect x="40" y="110" width="320" height="6" rx="3" fill="#FFFFFF" opacity="0.8"/>
  <!-- Body gradient overlay -->
  <rect x="40" y="116" width="320" height="144" rx="0" fill="url(#bodyGrad)" rx="16"/>

  <!-- Front face panel -->
  <rect x="55" y="125" width="290" height="118" rx="10" fill="#E8E8E8"/>
  <!-- Panel inner shadow -->
  <rect x="55" y="125" width="290" height="2" rx="1" fill="#FFFFFF" opacity="0.9"/>

  <!-- Brand stripe -->
  <rect x="55" y="125" width="290" height="32" rx="10" fill="#DC2C2C"/>
  <rect x="55" y="145" width="290" height="12" fill="#DC2C2C"/>

  <!-- XIAOMI text on stripe -->
  <text x="200" y="148" font-family="Arial, sans-serif" font-size="14" font-weight="bold" fill="white" text-anchor="middle" letter-spacing="3">XIAOMI</text>

  <!-- LED indicators -->
  <circle cx="230" cy="170" r="4" fill="#22CC55" opacity="0.9"/>
  <circle cx="245" cy="170" r="4" fill="#22CC55" opacity="0.7"/>
  <circle cx="260" cy="170" r="4" fill="#FFAA00" opacity="0.8"/>
  <circle cx="275" cy="170" r="4" fill="#DC2C2C" opacity="0.6"/>

  <!-- WAN/LAN ports area -->
  <rect x="80" y="160" width="110" height="28" rx="4" fill="#D8D8D8"/>
  <!-- Port slots -->
  <rect x="86" y="166" width="14" height="16" rx="2" fill="#BBBBBB"/>
  <rect x="104" y="166" width="14" height="16" rx="2" fill="#BBBBBB"/>
  <rect x="122" y="166" width="14" height="16" rx="2" fill="#BBBBBB"/>
  <rect x="140" y="166" width="14" height="16" rx="2" fill="#BBBBBB"/>
  <rect x="158" y="166" width="14" height="16" rx="2" fill="#DC2C2C" opacity="0.7"/>

  <!-- Bottom vent grill -->
  <rect x="70" y="200" width="260" height="35" rx="6" fill="#E0E0E0"/>
  <rect x="80" y="207" width="3" height="20" rx="1" fill="#CCCCCC"/>
  <rect x="90" y="207" width="3" height="20" rx="1" fill="#CCCCCC"/>
  <rect x="100" y="207" width="3" height="20" rx="1" fill="#CCCCCC"/>
  <rect x="110" y="207" width="3" height="20" rx="1" fill="#CCCCCC"/>
  <rect x="120" y="207" width="3" height="20" rx="1" fill="#CCCCCC"/>
  <rect x="130" y="207" width="3" height="20" rx="1" fill="#CCCCCC"/>
  <rect x="140" y="207" width="3" height="20" rx="1" fill="#CCCCCC"/>
  <rect x="150" y="207" width="3" height="20" rx="1" fill="#CCCCCC"/>
  <rect x="160" y="207" width="3" height="20" rx="1" fill="#CCCCCC"/>
  <rect x="170" y="207" width="3" height="20" rx="1" fill="#CCCCCC"/>
  <rect x="180" y="207" width="3" height="20" rx="1" fill="#CCCCCC"/>
  <rect x="190" y="207" width="3" height="20" rx="1" fill="#CCCCCC"/>
  <rect x="200" y="207" width="3" height="20" rx="1" fill="#CCCCCC"/>
  <rect x="210" y="207" width="3" height="20" rx="1" fill="#CCCCCC"/>
  <rect x="220" y="207" width="3" height="20" rx="1" fill="#CCCCCC"/>
  <rect x="230" y="207" width="3" height="20" rx="1" fill="#CCCCCC"/>
  <rect x="240" y="207" width="3" height="20" rx="1" fill="#CCCCCC"/>
  <rect x="250" y="207" width="3" height="20" rx="1" fill="#CCCCCC"/>
  <rect x="260" y="207" width="3" height="20" rx="1" fill="#CCCCCC"/>
  <rect x="270" y="207" width="3" height="20" rx="1" fill="#CCCCCC"/>
  <rect x="280" y="207" width="3" height="20" rx="1" fill="#CCCCCC"/>
  <rect x="290" y="207" width="3" height="20" rx="1" fill="#CCCCCC"/>
  <rect x="300" y="207" width="3" height="20" rx="1" fill="#CCCCCC"/>
  <rect x="310" y="207" width="3" height="20" rx="1" fill="#CCCCCC"/>

  <!-- Bottom base -->
  <rect x="60" y="255" width="280" height="18" rx="6" fill="#DCDCDC"/>
  <!-- Feet -->
  <rect x="80" y="268" width="30" height="8" rx="4" fill="#BBBBBB"/>
  <rect x="290" y="268" width="30" height="8" rx="4" fill="#BBBBBB"/>

  <!-- Model label -->
  <text x="200" y="290" font-family="Arial, sans-serif" font-size="11" fill="#999999" text-anchor="middle" letter-spacing="1">AX 3000T</text>

  <defs>
    <linearGradient id="bodyGrad" x1="0" y1="0" x2="0" y2="1">
      <stop offset="0%" stop-color="#FFFFFF" stop-opacity="0.1"/>
      <stop offset="100%" stop-color="#000000" stop-opacity="0.05"/>
    </linearGradient>
  </defs>
</svg>
