<svg width="824" height="416" viewBox="0 0 824 416" fill="none" xmlns="http://www.w3.org/2000/svg">
<g clip-path="url(#clip0_175_672)">
<path d="M330.948 -112.195L568.429 -100.359L-2.61906 416.657L330.948 -112.195Z" fill="#DC2C2C"/>
<path d="M474.16 46.0416L568.429 -100.359L-2.61906 416.657L474.16 46.0416Z" fill="#962929"/>
</g>
<path d="M338.89 211.047C348.359 216.644 355.917 224.076 361.562 233.347C368.229 244.294 371.562 257.417 371.562 272.716C371.562 288.155 368.124 301.173 361.247 311.77C354.893 321.66 346.123 329.288 334.939 334.654L378.721 415.034H315.141L277.29 343.875H257.034V415.034H198.507V310.511L257.034 269.043V298.4H277.666C284.543 298.4 290.403 297.558 295.245 295.874C300.157 294.12 303.912 291.348 306.509 287.559C309.176 283.769 310.509 278.821 310.509 272.716C310.509 266.54 309.175 261.523 306.509 257.663C303.912 253.733 300.157 250.856 295.245 249.031C293.063 248.177 290.673 247.518 288.077 247.049L338.89 211.047Z" fill="white"/>
<path fill-rule="evenodd" clip-rule="evenodd" d="M611.672 415.034H548.514L536.057 373.771H464.969L452.512 415.034H389.353L460.512 199.451H540.513L611.672 415.034ZM478.188 329.98H522.837L501.354 258.821H499.67L478.188 329.98Z" fill="white"/>
<path d="M708.964 287.032H710.647L752.754 199.451H818.019L738.859 347.243V415.034H680.753V347.243L601.593 199.451H666.857L708.964 287.032Z" fill="white"/>
<path opacity="0.4" d="M488.453 5.10665L514.358 94.1708H515.345L541.25 5.10665H579.985L538.29 131.425H491.414L449.719 5.10665H488.453ZM592.151 131.425V5.10665H646.675C656.05 5.10665 664.253 6.95702 671.285 10.6577C678.316 14.3585 683.785 19.56 687.691 26.2625C691.598 32.9649 693.551 40.7981 693.551 49.7621C693.551 58.8083 691.536 66.6415 687.506 73.2617C683.518 79.8819 677.905 84.9807 670.668 88.558C663.472 92.1354 655.063 93.9241 645.441 93.9241H612.875V67.2789H638.533C642.563 67.2789 645.996 66.5798 648.834 65.1818C651.712 63.7426 653.912 61.7072 655.433 59.0756C656.996 56.444 657.777 53.3395 657.777 49.7621C657.777 46.1436 656.996 43.0597 655.433 40.5103C653.912 37.9198 651.712 35.946 648.834 34.5891C645.996 33.1911 642.563 32.492 638.533 32.492H626.444V131.425H592.151ZM815.428 5.10665V131.425H786.809L741.167 65.0584H740.427V131.425H706.133V5.10665H735.246L780.148 71.2263H781.135V5.10665H815.428Z" fill="white"/>
<defs>
<clipPath id="clip0_175_672">
<rect width="409.902" height="409.902" fill="white" transform="translate(0 5.44043)"/>
</clipPath>
</defs>
</svg>
